<svg width="112" height="63" viewBox="0 0 112 63" fill="none" xmlns="http://www.w3.org/2000/svg">
<path d="M42.699 20.72C41.6097 18.7133 40.033 17.194 37.969 16.162C35.9624 15.0727 33.583 14.528 30.831 14.528C26.0724 14.528 22.2597 16.1047 19.393 19.258C16.5263 22.354 15.093 26.5107 15.093 31.728C15.093 37.2893 16.5837 41.6467 19.565 44.8C22.6037 47.896 26.7603 49.444 32.035 49.444C35.647 49.444 38.6857 48.5267 41.151 46.692C43.6737 44.8573 45.5084 42.22 46.655 38.78H27.993V27.944H59.985V41.618C58.8957 45.2873 57.0324 48.6987 54.395 51.852C51.815 55.0053 48.5184 57.5567 44.505 59.506C40.4917 61.4553 35.9624 62.43 30.917 62.43C24.9543 62.43 19.6223 61.14 14.921 58.56C10.277 55.9227 6.63635 52.282 3.99902 47.638C1.41902 42.994 0.129016 37.6907 0.129016 31.728C0.129016 25.7653 1.41902 20.462 3.99902 15.818C6.63635 11.1167 10.277 7.476 14.921 4.896C19.565 2.25866 24.8684 0.939997 30.831 0.939997C38.055 0.939997 44.1324 2.68866 49.063 6.186C54.051 9.68333 57.3477 14.528 58.953 20.72H42.699ZM89.9748 62.602C85.5602 62.602 81.6042 61.8853 78.1068 60.452C74.6095 59.0187 71.8002 56.8973 69.6788 54.088C67.6148 51.2787 66.5255 47.896 66.4108 43.94H82.0628C82.2922 46.176 83.0662 47.896 84.3848 49.1C85.7035 50.2467 87.4235 50.82 89.5448 50.82C91.7235 50.82 93.4435 50.3327 94.7048 49.358C95.9662 48.326 96.5968 46.9213 96.5968 45.144C96.5968 43.6533 96.0808 42.4207 95.0488 41.446C94.0742 40.4713 92.8415 39.6687 91.3508 39.038C89.9175 38.4073 87.8535 37.6907 85.1588 36.888C81.2602 35.684 78.0782 34.48 75.6128 33.276C73.1475 32.072 71.0262 30.2947 69.2488 27.944C67.4715 25.5933 66.5828 22.526 66.5828 18.742C66.5828 13.1233 68.6182 8.73733 72.6888 5.584C76.7595 2.37333 82.0628 0.767999 88.5988 0.767999C95.2495 0.767999 100.61 2.37333 104.681 5.584C108.751 8.73733 110.93 13.152 111.217 18.828H95.3068C95.1922 16.8787 94.4755 15.3593 93.1568 14.27C91.8382 13.1233 90.1468 12.55 88.0828 12.55C86.3055 12.55 84.8722 13.0373 83.7828 14.012C82.6935 14.9293 82.1488 16.2767 82.1488 18.054C82.1488 20.0033 83.0662 21.5227 84.9008 22.612C86.7355 23.7013 89.6022 24.8767 93.5008 26.138C97.3995 27.4567 100.553 28.718 102.961 29.922C105.426 31.126 107.547 32.8747 109.325 35.168C111.102 37.4613 111.991 40.414 111.991 44.026C111.991 47.466 111.102 50.5907 109.325 53.4C107.605 56.2093 105.082 58.4453 101.757 60.108C98.4315 61.7707 94.5042 62.602 89.9748 62.602Z" fill="#79DAE8"/>
</svg>
